<?xml version="1.0" standalone="no"?>
<!DOCTYPE svg PUBLIC "-//W3C//DTD SVG 1.1//EN" "http://www.w3.org/Graphics/SVG/1.1/DTD/svg11.dtd" >
<!--
2013-9-30: Created.
-->
<svg>
<metadata>
Created by iconfont
</metadata>
<defs>

<font id="iconfont" horiz-adv-x="1024" >
  <font-face
    font-family="iconfont"
    font-weight="500"
    font-stretch="normal"
    units-per-em="1024"
    ascent="896"
    descent="-128"
  />
    <missing-glyph />
    
    <glyph glyph-name="-yidong" unicode="&#58955;" d="M1017.9 394.3L849.2 531c-8.6 7-21.5 0.9-21.5-10.3v-94.5H554.2V699.6h94.5c11.1 0 17.3 12.9 10.3 21.5L522.3 889.9c-5.3 6.5-15.2 6.5-20.5 0L365 721.2c-7-8.6-0.9-21.5 10.3-21.5h94.5v-273.4H196.4v94.5c0 11.1-12.9 17.3-21.6 10.3L6.1 394.3c-6.5-5.3-6.5-15.2 0-20.5L174.8 237c8.6-7 21.6-0.9 21.6 10.3v94.5h273.4v-273.4h-94.5c-11.1 0-17.3-12.9-10.3-21.5l136.8-168.7c5.3-6.5 15.2-6.5 20.5 0L659 46.799999999999955c7 8.6 0.8 21.5-10.3 21.5h-94.5V341.79999999999995h273.4v-94.5c0-11.1 12.9-17.3 21.5-10.3l168.7 136.8c6.6 5.2 6.6 15.2 0.1 20.5z"  horiz-adv-x="1024" />

    
    <glyph glyph-name="shijian" unicode="&#58883;" d="M512 896a512 512 0 1 1 512-512A512 512 0 0 1 512 896z m0-960a448 448 0 1 0 448 448 448 448 0 0 0-448-448zM544 399.68V596.16a32 32 0 1 1-64 0v-209.92a32 32 0 0 1 10.88-23.68 32 32 0 0 1 6.08-7.36l250.24-202.56a32 32 0 0 1 40.32 49.6z"  horiz-adv-x="1024" />

    
    <glyph glyph-name="vip1" unicode="&#59610;" d="M810.666667-21.333333H213.333333c-46.933333 0-85.333333 38.4-85.333333 85.333333V661.333333c0 46.933333 38.4 85.333333 85.333333 85.333334h597.333334c46.933333 0 85.333333-38.4 85.333333-85.333334v-597.333333c0-46.933333-38.4-85.333333-85.333333-85.333333zM339.2 298.666667l44.8 194.133333h59.733333l-76.8-268.8h-55.466666L234.666667 492.8h59.733333l44.8-194.133333zM546.133333 224h-53.333333V492.8h53.333333v-268.8zM665.6 317.866667v-93.866667h-53.333333V492.8H704c78.933333 0 87.466667-72.533333 87.466667-89.6 0-25.6-10.666667-85.333333-87.466667-85.333333h-38.4z m0 46.933333h36.266667c27.733333 0 32 23.466667 32 40.533333 0 34.133333-19.2 44.8-32 44.8h-36.266667v-85.333333z"  horiz-adv-x="1024" />

    
    <glyph glyph-name="cuowu" unicode="&#58904;" d="M995.47676368 384c0-266.9596133-216.34956734-483.47676368-483.47676368-483.47676368-166.91260185 0-314.05041769 84.46179857-400.85837732 213.16549168-52.11829232 77.08814966-82.6183862 170.09667782-82.61838636 270.311272 0 266.9596133 216.34956734 483.47676368 483.47676368 483.47676368S995.47676368 650.9596133 995.47676368 384zM587.24473717 384l102.0580066 102.05800666c20.78028383 20.78028383 20.78028383 54.46445346 0 75.24473711-20.78028383 20.78028383-54.46445346 20.78028383-75.24473722 0L512 459.24473717l-102.05800666 102.0580066c-20.78028383 20.78028383-54.46445346 20.78028383-75.24473711 0-20.78028383-20.78028383-20.78028383-54.46445346 0-75.24473722l102.05800624-102.05800655-102.05800624-102.05800666c-20.78028383-20.78028383-20.78028383-54.46445346 0-75.24473711 10.39014182-10.39014182 23.96435953-15.58521291 37.70615994-15.58521292s27.31601822 5.19507114 37.70616024 15.58521292l102.05800656 102.0580066 102.05800684-102.0580066c10.39014182-10.39014182 23.96435953-15.58521291 37.70616006-15.58521292 13.57421767 0 27.31601822 5.19507114 37.70615982 15.58521292 20.78028383 20.78028383 20.78028383 54.46445346 0 75.24473722L587.24473717 384z"  horiz-adv-x="1024" />

    
    <glyph glyph-name="gou" unicode="&#59495;" d="M512-91.54467156999999c-262.14400002 0-475.54467157 213.40067157-475.54467157 475.54467157s213.40067157 475.54467157 475.54467157 475.54467157 475.54467157-213.40067157 475.54467157-475.54467157-213.40067157-475.54467157-475.54467157-475.54467157zM452.55691609 241.33659876000002c-5.94430867 0-11.88861725 2.37772343-16.64406307 7.13317033l-118.88616785 118.88616791c-9.51089379 9.51089379-9.51089379 24.37166418 0 33.88255682 9.51089379 9.51089379 24.37166418 9.51089379 33.88255802 0l118.88616668-118.88616772c9.51089379-9.51089379 9.51089379-24.37166418 9e-8-33.88255701-5.34987777-4.75544678-11.29418638-7.13317035-17.23849387-7.13317033zM452.55691609 241.33659876000002c-5.94430867 0-11.88861725 2.37772343-16.64406307 7.13317033-9.51089379 9.51089379-9.51089379 24.37166418 0 33.88255686l237.77233469 237.77233578c9.51089379 9.51089379 24.37166418 9.51089379 33.88255796 8e-8 9.51089379-9.51089379 9.51089379-24.37166418 0-33.88255799l-237.7723358-237.77233471c-5.34987777-4.75544678-11.29418638-7.13317035-17.23849378-7.13317035z"  horiz-adv-x="1024" />

    
    <glyph glyph-name="_shequluntan" unicode="&#58905;" d="M887.845926 782.222222c2.844444 0 5.12-2.74963 6.162963-5.214815l0.568889-1.232592a10.808889 10.808889 0 0 0 0.663703-3.602963v-455.111111a13.368889 13.368889 0 0 0-0.663703-3.887408c-0.948148-3.318519-3.697778-6.826667-6.826667-6.826666h-78.222222l-4.456296-0.758519a73.291852 73.291852 0 0 1-29.392593-11.662222l-24.841481-16.782222v-77.368889l-11.377778 10.145185-66.275556 62.577778-1.611852 2.939259-4.171852 4.835556a75.851852 75.851852 0 0 1-43.33037 25.031111l-5.30963 1.042963H322.37037c-3.034074 0-5.688889 3.508148-6.731851 7.016296a20.859259 20.859259 0 0 0-0.663704 2.939259V771.982222a12.136296 12.136296 0 0 0 1.232592 5.12A7.774815 7.774815 0 0 0 322.37037 782.222222h565.475556m0 56.888889H322.37037a64.094815 64.094815 0 0 1-58.026666-38.684444 68.456296 68.456296 0 0 1-6.257778-28.444445v-455.68a66.939259 66.939259 0 0 1 2.939259-18.962963A64.568889 64.568889 0 0 1 322.37037 249.552593h291.365926a18.962963 18.962963 0 0 0 10.903704-6.257778 37.925926 37.925926 0 0 1 7.49037-9.481482l67.887408-64.663703 16.402963-14.601482a52.622222 52.622222 0 0 1 42.856296-9.481481 62.482963 62.482963 0 0 1 40.011852 24.082963 38.968889 38.968889 0 0 1 8.059259 23.324444v55.466667a16.023704 16.023704 0 0 0 6.447408 2.56h73.671111a64.758519 64.758519 0 0 1 61.534814 48.26074 67.982222 67.982222 0 0 1 2.844445 18.962963V772.171852a68.456296 68.456296 0 0 1-6.257778 28.444444A64.094815 64.094815 0 0 1 887.845926 839.111111zM700.017778 171.045926l3.413333-3.223704a65.422222 65.422222 0 0 1 12.894815-11.377778l-16.402963 14.601482zM701.62963 92.34963H404.954074l-5.30963-1.042963a75.851852 75.851852 0 0 1-43.235555-25.031111l-4.171852-4.835556-1.517037-2.939259-69.12-66.370371-2.085926-1.991111-1.896296-2.275555A7.585185 7.585185 0 0 0 274.962963-14.222222h-1.042963v76.894815l-24.841481 16.877037a73.291852 73.291852 0 0 1-29.297778 11.662222l-4.456297 0.758518h-78.98074c-3.223704 0-5.878519 3.508148-7.111111 7.585186a11.282963 11.282963 0 0 0 0 2.275555V558.08a10.524444 10.524444 0 0 0 0.663703 3.508148l0.568889 1.232593a7.86963 7.86963 0 0 0 6.257778 5.12h64.663704v56.888889h-65.232593a64.094815 64.094815 0 0 1-58.026667-38.684445 68.456296 68.456296 0 0 1-6.257777-28.444444v-455.395556a67.982222 67.982222 0 0 1 2.844444-18.962963 64.758519 64.758519 0 0 1 61.534815-48.260741h73.671111a16.023704 16.023704 0 0 0 6.447407-2.56v-55.466666a38.968889 38.968889 0 0 1 8.05926-23.324445 62.482963 62.482963 0 0 1 40.011852-24.082963 59.354074 59.354074 0 0 1 9.481481-1.042963 61.534815 61.534815 0 0 1 46.838519 22.281482l71.30074 67.982222a37.925926 37.925926 0 0 1 7.490371 9.481482 18.962963 18.962963 0 0 0 10.903703 6.257777H701.62963a61.914074 61.914074 0 0 1 43.804444 18.962963l-43.425185 38.684445zM507.922963 489.813333a58.026667 58.026667 0 0 0 0 116.053334 58.026667 58.026667 0 0 0 0-116.053334zM700.776296 489.813333a58.026667 58.026667 0 0 0 0 116.053334 58.026667 58.026667 0 0 0 0-116.053334z"  horiz-adv-x="1024" />

    
    <glyph glyph-name="shouce" unicode="&#58887;" d="M135.52 878.72l763.04 0 0-987.36-763.04 0 0 987.36ZM27.68 660.8l215.68 0 0-102.24-215.68 0 0 102.24ZM192 540.48H78.88a69.28 69.28 0 1 0 0 138.4H192a69.28 69.28 0 1 0 0-138.4z m-113.12 102.24a33.12 33.12 0 1 1 0-66.08H192a33.12 33.12 0 1 1 0 66.08zM27.68 436l215.68 0 0-102.24-215.68 0 0 102.24ZM192 315.68H78.88a69.28 69.28 0 1 0 0 138.4H192a69.28 69.28 0 1 0 0-138.4z m-113.12 102.24a33.12 33.12 0 1 1 0-66.08H192a33.12 33.12 0 1 1 0 66.08zM27.68 211.36l215.68 0 0-102.24-215.68 0 0 102.24ZM192 90.88H78.88a69.28 69.28 0 1 0 0 138.4H192a69.28 69.28 0 1 0 0-138.4z m-113.12 102.4a33.12 33.12 0 1 1 0-66.08H192a33.12 33.12 0 1 1 0 66.08zM707.68 682.24h-315.2a18.08 18.08 0 1 0 0 36.16h315.2a18.08 18.08 0 1 0 0-36.16zM707.68 514.24h-315.2a18.08 18.08 0 0 0 0 36.16h315.2a18.08 18.08 0 0 0 0-36.16zM516.32-108.8h313.76a67.04 67.04 0 0 1 67.04 67.04V272zM614.4-108.8h224.8a59.2 59.2 0 0 1 59.2 59.2V176z"  horiz-adv-x="1024" />

    
    <glyph glyph-name="gitee-fill-round" unicode="&#59015;" d="M512-128C230.4-128 0 102.39999999999998 0 384S230.4 896 512 896s512-230.4 512-512-230.4-512-512-512z m259.2 569.6H480c-12.8 0-25.6-12.8-25.6-25.6v-64c0-12.8 12.8-25.6 25.6-25.6h176c12.8 0 25.6-12.8 25.6-25.6v-12.8c0-41.6-35.2-76.8-76.8-76.8h-240c-12.8 0-25.6 12.8-25.6 25.6V480c0 41.6 35.2 76.8 76.8 76.8h355.2c12.8 0 25.6 12.8 25.6 25.6v64c0 12.8-12.8 25.6-25.6 25.6H416c-105.6 0-188.8-86.4-188.8-188.8V128c0-12.8 12.8-25.6 25.6-25.6h374.4c92.8 0 169.6 76.8 169.6 169.6v144c0 12.8-12.8 25.6-25.6 25.6z"  horiz-adv-x="1024" />

    
    <glyph glyph-name="png1" unicode="&#58958;" d="M140.288 477.184c38.912 0 71.68 13.312 99.328 40.96 27.648 27.648 40.96 60.416 40.96 99.328 0 38.912-13.312 71.68-40.96 99.328-27.648 27.648-60.416 40.96-99.328 40.96-38.912 0-71.68-13.312-99.328-40.96-27.648-27.648-40.96-60.416-40.96-99.328 0-38.912 13.312-71.68 40.96-99.328 27.648-27.648 60.416-40.96 99.328-40.96z m209.92-209.92L233.472 384 1.024 151.552v-139.264h1024V337.92L722.944 640 350.208 267.264z"  horiz-adv-x="1025" />

    
    <glyph glyph-name="jpeg" unicode="&#58977;" d="M832.2 768.1v-766H192.7v766h639.5m0 64H192.7c-35.3 0-64-28.7-64-64v-766c0-35.3 28.7-64 64-64h639.5c35.3 0 64 28.7 64 64v766c0 35.4-28.7 64-64 64zM733.039 71.832v32h97.9v-32zM896.2-62.3H321.9v176c0 35.3 28.7 64 64 64h510.3c35.3 0 64-28.7 64-64v-112c0-35.4-28.7-64-64-64zM478.3 125v-96.6c0-16.4-3.4-28.4-10.2-36.4-7.6-8.4-19.6-12.6-36.2-12.6-14.4 0-25.4 4-32.8 12-7.6 8-11.4 19-11.4 33V29h23.4v-4.4c0-16.4 7-24.6 21.2-24.6 7.8 0 13.6 2.4 17.2 7 3.6 4.6 5.4 12 5.4 22.2V125h23.4zM565.5 125c34.4 0 51.8-14.6 51.8-43.8 0-29.4-17.4-44.2-52.2-44.2h-35.4v-54.8h-23.4V125h59.2z m-35.8-68h34c10.4 0 18 2 22.8 5.6 4.8 3.8 7.2 10 7.2 18.6 0 8.6-2.6 14.6-7.4 18.2-4.8 3.8-12.4 5.6-22.6 5.6h-34v-48zM740.3 125v-20h-79.6v-39.6h74.8v-20h-74.8v-43.2h83v-20H637.3V125h103zM871.1 115.6c10.2-8 16.6-19.8 19.2-35.8h-23.6c-2 9.2-6.4 16-12.8 20.6-6.6 4.6-15.4 6.8-26.2 6.8-13.4 0-24-4.4-31.8-13.6-8.6-9.6-12.8-23-12.8-40.6 0-16.8 3.8-29.8 11.4-38.8 8.2-9.6 21-14.4 38.4-14.4 6.8 0 13.2 0.8 19.2 2.4 5.6 1.6 10.6 3.8 15.4 6.6v29.4h-37.8v20h61.2v-60.4c-7.6-6-16.2-10.4-26-13.6-10.4-3.2-21.8-4.8-34.6-4.8-22.8 0-40.4 7.2-53 21.6-11.8 13.4-17.6 30.8-17.6 52 0 21.4 5.8 39 17.6 52.8 12.4 14.8 29.2 22 50.4 22 18.4 0 32.8-4 43.4-12.2zM684.3 298.4c-6.1 0-12.1 0.3-18.1 0.8-66 5.9-109 41.5-150.5 75.9-36.7 30.4-71.4 59.2-119.3 62.7-64.9 4.7-136.2-39.2-212-130.5l-24.6 20.4c46.3 55.8 92.2 95.7 136.4 118.6 34.7 17.9 69.2 25.8 102.6 23.4 58.1-4.2 98.4-37.6 137.4-69.9 39.5-32.7 76.8-63.7 132.9-68.6 57.4-5.1 118.3 18.9 180.9 71.5l20.6-24.5c-63.1-53.1-125.7-79.8-186.3-79.8zM687.6 524m-80.1 0a80.1 80.1 0 1 1 160.2 0 80.1 80.1 0 1 1-160.2 0Z"  horiz-adv-x="1024" />

    
    <glyph glyph-name="JS" unicode="&#58903;" d="M847.872 655.872v-688c0-26.56-21.408-48-48-48h-576c-26.56 0-48 21.44-48 48v832c0 26.592 21.44 48 48 48h432zM160 127.872v-160c0-35.456 28.544-64 64-64h576c35.456 0 64 28.544 64 64v160H160zM847.872 655.872h-144c-26.56 0-48 21.44-48 48v144M432.256 575.872c-35.2 0-64-28.8-64-64v-32c0-18.016-14.016-32-32-32a16 16 0 0 1-3.2-0.256 16 16 0 0 1-12.384-11.232 16 16 0 0 1-0.352-1.504 16 16 0 0 1 0-0.064 16 16 0 0 1 15.936-18.944c17.984 0 32-13.984 32-32v-32c0-35.2 28.8-64 64-64a16 16 0 1 1 0 32c-18.016 0-32 13.984-32 32v32c0 19.136-8.736 36.256-22.208 48a63.68 63.68 0 0 1 22.208 48v32c0 18.016 13.984 32 32 32a16 16 0 1 1 0 32z m157.856 0a16 16 0 0 1 1.632-32c18.016 0 32-13.984 32-32v-32c0-19.168 8.736-36.224 22.208-48-13.44-11.744-22.208-28.864-22.208-48v-32c0-18.016-13.984-32-32-32a16 16 0 1 1 0-32c35.2 0 64 28.8 64 64v32c0 18.016 14.016 32 32 32a16 16 0 0 1 10.368 3.616 16 16 0 0 1 1.216 1.152 16 16 0 0 1-11.584 27.232c-17.984 0-32 13.984-32 32v32c0 35.2-28.8 64-64 64a16 16 0 0 1-1.6 0zM512 528.064a32 32 0 0 1-32-32 32 32 0 0 1 32-32 32 32 0 0 1 32 32 32 32 0 0 1-32 32z m0-96a32 32 0 0 1-32-32 32 32 0 0 1 16.256-27.872l-14.4-28.864a16 16 0 1 1 28.64-14.272l24 48.256a32 32 0 0 1 9.44 21.504 16 16 0 0 1 0 0.192 32 32 0 0 1 0.064 1.056 32 32 0 0 1-32 32zM335.872 96a16 16 0 0 1-15.744-16.256V-16c0-9.152-6.848-16-16-16a15.616 15.616 0 0 0-16 16 16 16 0 0 1-16.256 16.192 16 16 0 0 1-15.744-16.192c0-26.304 21.696-48 48-48 24.768 0 45.12 19.296 47.488 43.52a16 16 0 0 1 0.512 4.224v96a16 16 0 0 1-16.256 16.256z m94.4-0.128a16 16 0 0 1-2.016-0.384c-24.64-1.92-44.384-22.528-44.384-47.616 0-25.28 20.096-46.08 44.992-47.68a16 16 0 0 1 3.008-0.32h32c9.152 0 16-6.848 16-16 0-9.152-6.848-16-16-16h-64a16 16 0 1 1 0-32h64a16 16 0 0 1 3.328 0.384 48.096 48.096 0 0 1 44.672 47.616c0 25.152-19.84 45.888-44.544 47.68a16 16 0 0 1-3.456 0.32h-30.88a16 16 0 0 1-1.12 0 15.616 15.616 0 0 0-16 16c0 9.152 6.848 16 16 16h64a16 16 0 1 1 0 32h-62.88a16 16 0 0 1-1.12 0 16 16 0 0 1-1.6 0z"  horiz-adv-x="1024" />

    
    <glyph glyph-name="wenjian" unicode="&#58902;" d="M623.435294 885.960784H612.392157v-51.2L885.458824 534.588235H933.647059v11.043138zM893.490196-7.529412c0-44.172549-26.101961-70.27451-70.27451-70.27451H200.784314c-44.172549 0-70.27451 26.101961-70.27451 70.27451V775.529412c0 44.172549 26.101961 70.27451 70.27451 70.27451h371.45098V885.960784H170.666667c-44.172549 0-80.313725-36.141176-80.313726-80.313725v-843.294118c0-44.172549 36.141176-80.313725 80.313726-80.313725h682.666666c44.172549 0 80.313725 36.141176 80.313726 80.313725V505.47451c-12.047059-7.027451-25.098039-11.043137-40.156863-11.043137v-501.960785zM572.235294 845.803922v-271.058824c0-44.172549 36.141176-80.313725 80.313726-80.313725h240.941176v31.121568l-8.031372 9.035294H682.666667c-44.172549 0-70.27451 26.101961-70.27451 70.27451V834.760784L602.352941 845.803922h-30.117647zM602.352941 845.803922l10.039216-11.043138V885.960784h-40.156863v-40.156862zM893.490196 525.552941V494.431373c15.058824 0 28.109804 4.015686 40.156863 11.043137V534.588235h-48.188235l8.031372-9.035294zM250.980392 604.862745h200.784314c11.043137 0 20.078431 9.035294 20.078431 20.078431s-9.035294 20.078431-20.078431 20.078432H250.980392c-11.043137 0-20.078431-9.035294-20.078431-20.078432s9.035294-20.078431 20.078431-20.078431zM250.980392 424.156863h200.784314c11.043137 0 20.078431 9.035294 20.078431 20.078431s-9.035294 20.078431-20.078431 20.078431H250.980392c-11.043137 0-20.078431-9.035294-20.078431-20.078431s9.035294-20.078431 20.078431-20.078431zM230.901961 253.490196c0-11.043137 9.035294-20.078431 20.078431-20.078431h501.960784c11.043137 0 20.078431 9.035294 20.078432 20.078431s-9.035294 20.078431-20.078432 20.078431H250.980392c-11.043137 0-20.078431-9.035294-20.078431-20.078431zM752.941176 92.862745H250.980392c-11.043137 0-20.078431-9.035294-20.078431-20.078431s9.035294-20.078431 20.078431-20.078432h501.960784c11.043137 0 20.078431 9.035294 20.078432 20.078432s-9.035294 20.078431-20.078432 20.078431z"  horiz-adv-x="1024" />

    
    <glyph glyph-name="htaccess" unicode="&#58954;" d="M521.895997 827.337475C431.991929 731.951524 348.519722 555.263321 322.56428 420.31022c12.419733-24.505474 24.913465-69.652504 30.217351-96.569925-5.457883 23.087504-20.319563 48.052968-36.885208 77.278339l-16.015656-50.138922c20.631557-37.71119 33.175287-102.367801 33.175288-102.367801-5.543881 23.577493-20.655556 48.464959-39.211158 81.264254-9.269801-34.279264-12.977721-57.398767-9.623793-63.038646 21.527537-44.037054 36.979206-135.789083 39.447152-164.222471-2.679942-84.054194 3.819918-171.518315 23.707491-230.495048l6.587858 3.589922C278.007237 148.908051 449.935543 637.705549 675.978687 823.075567 549.895396 696.684282 396.844684 350.515719 359.053496 113.206818c28.441389 86.866134 120.317415 124.223331 120.317415 124.223331s45.089031 55.582806 97.7519 134.9911c-54.136837-11.871745-95.449949-22.595515-133.217138-41.223115 0 0 82.920219 50.492915 154.04469 73.372424 97.831898 154.08469 204.421608 373.021986 97.081915 468.801928-50.24892 46.628998-116.149505 16.231651-173.136281-46.035011z"  horiz-adv-x="1024" />

    
    <glyph glyph-name="ENV" unicode="&#59014;" d="M287.451429 607.817143H149.942857v-182.857143h133.851429v-80.457143H149.942857V164.571429h152.868572v-89.234286H61.44V696.32h226.011429z m50.468571-535.405714V693.394286h87.04l128.731429-350.354286V693.394286h89.234285v-620.982857H557.348571L426.422857 427.885714v-355.474285z m650.24 620.982857l-114.834286-620.982857h-84.845714L673.645714 693.394286h84.845715l73.142857-388.388572c12.434286 65.828571 24.868571 130.194286 36.571428 193.828572s24.137143 128.731429 36.571429 194.56z"  horiz-adv-x="1024" />

    
    <glyph glyph-name="BAT" unicode="&#58899;" d="M354.40128 896c-87.04 0-157.44-70.55872-157.44-157.59872v-275.68128H78.72c-21.6576 0-39.36256-17.69984-39.36256-39.36256v-236.31872c0-21.6576 17.69984-39.35744 39.36256-39.35744h118.24128v-118.08256c0-87.04 70.4-157.59872 157.44-157.59872h472.63744c87.04 0 157.59872 70.55872 157.59872 157.59872V580.9664c0 41.74848-38.9888 81.93024-107.52 149.27872l-29.11744 29.12256L818.87744 788.48C751.5392 857.0112 711.39328 896 669.59872 896H354.4064z m0-78.72h287.20128c28.35456-7.0912 27.99616-42.1376 27.99616-76.8v-120.16128c0-21.6576 17.69984-39.35744 39.36256-39.35744h118.07744c39.38816 0 78.87872 0.0256 78.87872-39.36256v-512c0-43.32032-35.55328-78.87872-78.87872-78.87872H354.4064c-43.32544 0-78.72 35.5584-78.72 78.87872v118.08256h393.91744c21.66272 0 39.36256 17.69472 39.36256 39.35744V423.35744c0 21.66272-17.69984 39.36256-39.36256 39.36256H275.68128V738.40128c0 43.32032 35.39456 78.87872 78.72 78.87872z m24.32-427.67872h20.15744l65.28-176.64h-23.04l-19.2 54.71744h-65.28l-19.2-54.71744h-23.04l64.32256 176.64z m-192.96256-0.96256h48c23.04 0 39.04-3.84 48-11.52 9.6-7.04 14.40256-17.92 14.40256-32.64 0-21.76-11.84256-34.56-35.52256-38.4v-0.95744c26.88-4.48 40.32-18.24256 40.32-41.28256 0-15.36-5.12-27.83744-15.36-37.43744-9.6-8.96-23.35744-13.44-41.27744-13.44H185.7536V388.63872z m266.88 0h121.92256v-20.15744h-49.92v-155.52h-22.08256v155.52h-49.92v20.15744z m-244.79744-19.2v-55.68h29.75744c12.8 0 21.76 2.24256 26.88 6.72256 5.76 5.12 8.64256 12.47744 8.64256 22.07744 0 8.96-3.2 15.68256-9.6 20.16256s-16 6.71744-28.8 6.71744h-26.88z m181.43744-3.84c-1.92-8.96-4.79744-18.23744-8.63744-27.83744l-17.28-50.88256h51.84l-18.24256 50.88256c-3.84 10.88-6.4 20.15744-7.68 27.83744zM207.84128 295.5264v-63.36h31.67744c12.8 0 22.08256 2.56 27.84256 7.68 6.4 5.76 9.6 14.08 9.6 24.96 0 10.24-3.2 17.92-9.6 23.04s-16 7.68-28.8 7.68h-30.72z"  horiz-adv-x="1024" />

    
    <glyph glyph-name="htm" unicode="&#58938;" d="M658.33138 889.323812H132.820048C118.196019 889.323812 129.640912 886.780503 129.640912 864.208631v-964.55014c0-6.358274-11.444893-27.658491 3.179136-27.658491h725.796958a47.687054 47.687054 0 0 1 34.016765 27.658491v762.99286a23.207699 23.207699 0 0 1-8.58367 19.710648L670.094187 889.323812c0 2.861223-7.629929 0-11.762807 0zM701.885556 896v-229.215771h224.76498zM66.058173 317.079168m61.675256 0l766.807824 0q61.675256 0 61.675256-61.675256l0-226.354548q0-61.675256-61.675256-61.675257l-766.807824 0q-61.675256 0-61.675256 61.675257l0 226.354548q0 61.675256 61.675256 61.675256ZM356.631287 16.014902000000006H310.533802v89.333747h-92.194971v-89.333747H172.241346v216.499224h46.097485v-87.426265h92.194971v87.426265h46.097485zM556.598999 194.68239700000004h-61.675256v-178.667495H447.554603v178.667495h-60.403601v37.831729h169.447997zM784.543116 16.014902000000006v131.298355q0 18.12108 1.907482 45.779571a239.38901 239.38901 0 0 0-6.676188-27.976405l-53.4095-149.101521h-38.149643L634.16994 164.79850999999996a295.977647 295.977647 0 0 0-6.676188 29.248059q1.907482-27.340577 1.907482-54.681155v-122.396771h-42.918348v215.545483h67.079789L699.978074 101.21577100000002a157.049364 157.049364 0 0 0 7.947842-31.791369 319.821174 319.821174 0 0 0 8.901584 31.791369L765.468294 232.51412600000003h63.582739v-216.499224zM665.007568 390.199317h-82.021733v158.956846H418.942371v-158.956846H336.920638V774.874884h82.021733v-155.141882h164.043464V774.874884h82.021733z"  horiz-adv-x="1024" />

    
    <glyph glyph-name="md" unicode="&#58943;" d="M880 585.6L611.2 848H192C166.4 848 144 825.6 144 800v-832c0-25.6 22.4-48 48-48h640c25.6 0 48 22.4 48 48V585.6zM832-96H192c-35.2 0-64 28.8-64 64V800C128 835.2 156.8 864 192 864h425.6L896 592V-32c0-35.2-28.8-64-64-64zM192 832c-19.2 0-32-12.8-32-32v-832c0-16 12.8-32 32-32h640c19.2 0 32 12.8 32 32V579.2L604.8 832H192zM896 576h-204.8c-28.8 0-38.4 3.2-48 9.6-9.6 6.4-19.2 12.8-25.6 25.6s-9.6 19.2-9.6 48V864M243.2 326.4h51.2v-25.6c6.4 9.6 16 19.2 25.6 22.4 9.6 6.4 22.4 9.6 35.2 9.6 12.8 0 22.4-3.2 35.2-6.4 9.6-6.4 19.2-12.8 22.4-25.6 6.4 9.6 12.8 16 25.6 22.4 9.6 6.4 22.4 9.6 35.2 9.6 9.6 0 19.2 0 28.8-3.2 9.6-3.2 16-6.4 22.4-12.8 6.4-6.4 12.8-12.8 16-22.4 3.2-9.6 6.4-19.2 6.4-32V128h-54.4v112 19.2c0 6.4-3.2 9.6-3.2 16l-9.6 9.6c-6.4 3.2-12.8 3.2-22.4 3.2-6.4 0-12.8 0-19.2-3.2-3.2-3.2-9.6-6.4-9.6-12.8s-3.2-9.6-6.4-16v-128h-54.4v112 16c0 6.4 0 9.6-3.2 16s-6.4 9.6-9.6 12.8c-6.4 3.2-12.8 3.2-22.4 3.2-3.2 0-6.4 0-9.6-3.2-3.2 0-9.6-3.2-12.8-6.4s-6.4-6.4-9.6-12.8c-3.2-6.4-3.2-12.8-3.2-22.4V128H243.2v198.4z m486.4-99.2c0 9.6 0 16-3.2 22.4 0 6.4-3.2 12.8-6.4 19.2s-9.6 9.6-12.8 12.8c-6.4 3.2-12.8 6.4-22.4 6.4s-16-3.2-22.4-6.4-9.6-9.6-16-12.8l-9.6-19.2c-3.2-6.4-3.2-16-3.2-22.4 0-6.4 0-16 3.2-22.4 3.2-6.4 3.2-16 9.6-19.2 3.2-6.4 9.6-9.6 16-16 6.4-3.2 12.8-6.4 22.4-6.4 9.6 0 16 3.2 22.4 6.4 6.4 3.2 9.6 9.6 16 12.8 3.2 6.4 6.4 12.8 6.4 19.2v25.6z m0-73.6c-6.4-9.6-16-19.2-25.6-22.4-9.6-3.2-22.4-6.4-35.2-6.4-16 0-28.8 3.2-38.4 9.6-12.8 6.4-19.2 12.8-28.8 22.4-6.4 9.6-12.8 22.4-16 35.2-3.2 12.8-6.4 25.6-6.4 38.4 0 12.8 3.2 25.6 6.4 38.4 3.2 12.8 9.6 22.4 16 32 6.4 9.6 16 16 28.8 22.4 9.6 6.4 22.4 9.6 38.4 9.6 12.8 0 22.4-3.2 32-6.4 9.6-6.4 19.2-12.8 25.6-22.4v99.2h54.4V128h-51.2v25.6z"  horiz-adv-x="1024" />

    
    <glyph glyph-name="lock" unicode="&#58901;" d="M731.1872 454.7072h-18.0736V581.9392c0 89.1392-94.9248 131.84-174.7968 131.84-79.9232 0-174.848-42.6496-174.848-131.84v-127.232h-18.0736c-26.624 0-48.2304-24.064-48.2304-53.8112v-290.9696c0-29.696 21.6064-53.8112 48.2304-53.8112h385.8432c26.624 0 48.2304 24.1152 48.1792 53.8112V400.896c0 29.696-21.5552 53.8112-48.2304 53.8112z m-319.488 127.232c0 59.4432 73.3184 78.0288 126.6176 78.0288 53.248 0 126.5664-18.5856 126.5664-78.0288v-127.232H411.6992V581.9392z m319.488-181.0432v-290.9696H345.3952V400.896h385.8432-0.0512zM538.3168 163.7376c-13.312 0-24.1152 12.032-24.1152 26.9312 0 14.848 10.8032 48.7936 24.1152 48.7936s24.1152-33.9456 24.1152-48.7936c0-14.848-10.8032-26.9312-24.1152-26.9312z m0 183.3984c26.624 0 48.1792-24.1152 48.1792-53.8112 0-29.7472-21.6064-53.8112-48.1792-53.8112-26.624 0-48.2816 24.1152-48.2816 53.8112 0.0512 29.696 21.6576 53.8112 48.2816 53.8112zM538.3168 239.5136c26.5728 0 48.1792 24.064 48.1792 53.8112 0 29.696-21.5552 53.8112-48.1792 53.8112s-48.2304-24.1152-48.2816-53.8112c0-29.696 21.6576-53.8112 48.2816-53.8112zM538.3168 239.4624c-13.312 0-24.1152-33.9456-24.1152-48.7936 0-14.8992 10.8032-26.9312 24.1152-26.9312s24.1152 12.0832 24.1152 26.9312-10.8032 48.7936-24.1152 48.7936z"  horiz-adv-x="1024" />

    
    <glyph glyph-name="XML" unicode="&#59072;" d="M675.386525 895.351847H145.683858C130.938388 895.351847 118.982288 883.395748 118.982288 860.201146v-968.687125c0-6.296339 11.9561-18.252439 26.70157-18.252438h731.486443c14.733896 0 26.689996 11.9561 26.689995 18.252438V658.486815c0 12.731568-1.689826 16.794095-4.629661 19.803375L686.740768 890.664316a16.11122 16.11122 0 0 1-11.354243 4.629661z m0 0M684.784737 892.550903v-216.216745H901.047777z m0 0M877.11243-126.738417H145.683858A26.70157 26.70157 0 0 0 118.982288-100.036847v283.566737h784.820138v-283.566737a26.70157 26.70157 0 0 0-26.689996-26.70157z m0 0M325.673505 84.350977h44.606784v-7.037085h-3.472246a19.351983 19.351983 0 0 1-6.006985-0.601856 2.048625 2.048625 0 0 1-1.539362-1.967605c0-1.261583 1.157415-3.472246 3.472245-6.701435l21.79413-29.849739 23.842754 29.849739q3.472246 4.294011 3.472246 6.35421 0 2.916686-6.863473 2.916686h-4.29401v7.037085h37.916924v-7.037085c-4.57179 0-7.870424-0.509263-9.861178-1.539362s-4.722254-3.611136-8.101907-7.731534l-30.497892-36.539599 35.879873-47.176246q4.629661-6.006985 7.800978-7.893572t9.69914-1.886587v-7.037085h-44.757248v7.037085h3.599562q7.893572 0 7.893572 2.569462c0 1.377324-1.307879 3.773174-3.946786 7.210697l-26.620551 35.683112-29.340477-36.886824a8.101907 8.101907 0 0 1-2.233811-4.803274q0-3.7616 6.68986-3.773173h3.472246v-7.037085h-37.916924v7.037085q6.68986 0 9.953771 1.631955t8.750059 8.101907l35.162276 42.372973-31.250212 41.342873c-3.553265 4.699106-6.331061 7.407458-8.321816 8.101906a27.569631 27.569631 0 0 1-9.016265 1.157416zM451.773897 84.350977h36.886824l34.490975-92.477479 33.657636 92.477479h35.64839v-7.037085h-2.916687q-6.35421 0-8.923672-2.060199c-1.712975-1.377324-2.569462-4.629661-2.569461-9.780159v-77.025985q0-8.923672 1.886586-11.412114c1.261583-1.655104 4.456049-2.488443 9.606547-2.488443h2.916687v-7.037085h-44.606784v7.037085h3.090298c4.629661 0 7.638941 0.717597 9.178303 2.141218s2.314831 4.548642 2.314831 9.351915v85.903361l-38.032666-104.433579h-8.402834l-38.426187 103.114125v-82.870932q0-8.229222 2.916687-10.717665c1.944458-1.655104 5.196795-2.488443 9.780159-2.488443h2.743074v-7.037085h-41.238706v7.037085h2.407424q8.402835 0 10.810258 2.835667c1.597233 1.886587 2.39585 5.567167 2.39585 11.06489v76.389407q0 8.923672-2.39585 10.717665t-9.259322 1.805568h-3.946786zM609.437003 84.350977h45.301234v-7.037085h-4.120399q-5.659761 0-8.240796-1.631955c-1.712975-1.08797-2.569462-3.854193-2.569462-8.321816v-81.493608q0-6.863472 1.284731-8.101907t8.101906-1.284731h6.180598q15.613532 0 24.618222 6.944492t16.203814 23.252472l7.372735-2.569462-13.032496-36.551173h-81.100087v7.037084h3.611136q6.678286 0 8.923672 1.967606t2.222237 9.351916v79.387112q0 7.199123-1.793994 9.606547c-1.157415 1.608807-4.328733 2.407424-9.351915 2.407423h-3.611136zM400.951793 334.387395a20.20847 20.20847 0 0 0-15.520938 7.233845l-78.287568 93.206651a20.254767 20.254767 0 0 0 31.018729 26.007121l78.287567-93.206651a20.243193 20.243193 0 0 0-15.49779-33.275688zM322.641077 427.582471a20.266341 20.266341 0 0 0-15.49779 33.252541l78.287568 93.20665a20.261711 20.261711 0 0 0 31.018728-26.076565l-78.287567-93.206651a20.220045 20.220045 0 0 0-15.520939-7.175975zM676.601811 427.582471a20.220045 20.220045 0 0 0-15.520939 7.233846l-78.287568 93.14878a20.254767 20.254767 0 0 0 31.018729 26.053417l78.287568-93.183502a20.254767 20.254767 0 0 0-15.49779-33.287263zM598.291094 334.387395a20.243193 20.243193 0 0 0-15.49779 33.275689l78.287568 93.171928a20.254767 20.254767 0 0 0 31.018729-26.053418l-78.287568-93.160354a20.20847 20.20847 0 0 0-15.520939-7.233845zM470.084206 313.426605a20.289489 20.289489 0 0 0-19.676059 25.081188l55.937879 228.311734a20.258239 20.258239 0 1 0 39.352119-9.641269l-55.949453-228.288585a20.266341 20.266341 0 0 0-19.664486-15.463068z"  horiz-adv-x="1024" />

    
    <glyph glyph-name="TXT" unicode="&#58945;" d="M795.927273 672.581818H977.454545v-735.418182c0-37.236364-27.927273-65.163636-69.818181-65.163636H181.527273c-37.236364 0-69.818182 27.927273-69.818182 65.163636V826.181818C116.363636 868.072727 144.290909 896 181.527273 896h567.854545v-176.872727h46.545455v-46.545455z m-69.818182 23.272727V872.727273H181.527273c-23.272727 0-46.545455-18.618182-46.545455-46.545455v-889.018182c0-23.272727 18.618182-46.545455 46.545455-46.545454h726.109091c23.272727 0 46.545455 18.618182 46.545454 46.545454V649.309091h-181.527273v46.545454h-46.545454z m0 0M204.8 6.981818H884.363636v-46.545454H204.8v46.545454z m0 111.709091H884.363636v-46.545454H204.8v46.545454z m0 111.709091H884.363636v-46.545455H204.8v46.545455z m0 0M93.090909 784.290909h363.054546c23.272727 0 46.545455-18.618182 46.545454-46.545454V384c0-23.272727-18.618182-46.545455-46.545454-46.545455H93.090909c-23.272727 0-46.545455 18.618182-46.545454 46.545455V737.745455c0 27.927273 18.618182 46.545455 46.545454 46.545454z m0 0M246.690909 435.2V626.036364c0 4.654545-4.654545 9.309091-9.309091 9.309091H181.527273c-4.654545 0-9.309091 4.654545-9.309091 9.30909v23.272728c0 4.654545 4.654545 9.309091 9.309091 9.309091h186.181818c0-4.654545 4.654545-4.654545 4.654545-9.309091v-27.927273c0-4.654545-4.654545-9.309091-9.309091-9.309091H307.2c-4.654545 0-9.309091-4.654545-9.309091-9.309091V430.545455h-41.890909c-4.654545 0-9.309091 0-9.309091 4.654545z m0 0"  horiz-adv-x="1024" />

    
    <glyph glyph-name="gitignore" unicode="&#59368;" d="M985.6 471.04L599.04 847.36c-48.64 46.08-128 46.08-176.64 0l-384-373.76C12.8 450.56 0 417.28 0 384c0-33.28 12.8-64 38.4-89.6l386.56-373.76c25.6-23.04 56.32-35.84 87.04-35.84 30.72 0 64 12.8 87.04 35.84l384 373.76c25.6 23.04 38.4 53.76 38.4 89.6 2.56 33.28-10.24 64-35.84 87.04z m-46.08-128L552.96-28.16c-23.04-20.48-58.88-20.48-81.92 0L84.48 345.6c-23.04 20.48-23.04 56.32 0 79.36l256 248.32 66.56-66.56c-5.12-10.24-7.68-23.04-7.68-35.84 0-35.84 23.04-64 56.32-76.8v-222.72c-33.28-10.24-56.32-40.96-56.32-76.8 0-43.52 38.4-79.36 81.92-79.36 46.08 0 81.92 35.84 81.92 79.36 0 35.84-23.04 64-56.32 76.8v222.72c2.56 0 5.12 2.56 7.68 2.56l110.08-107.52c-5.12-10.24-7.68-23.04-7.68-35.84 0-43.52 38.4-79.36 81.92-79.36 46.08 0 81.92 35.84 81.92 79.36 0 43.52-38.4 79.36-81.92 79.36-12.8 0-25.6-2.56-35.84-7.68L558.08 537.6c5.12 10.24 7.68 23.04 7.68 35.84 0 43.52-38.4 79.36-81.92 79.36-12.8 0-25.6-2.56-35.84-7.68l-66.56 66.56 89.6 87.04c23.04 20.48 58.88 20.48 81.92 0l386.56-373.76c20.48-23.04 20.48-58.88 0-81.92z"  horiz-adv-x="1024" />

    
    <glyph glyph-name="yml" unicode="&#58882;" d="M227.555556 867.555556h389.404444a19.911111 19.911111 0 0 0 14.734222-6.542223l271.132445-298.211555a28.444444 28.444444 0 0 0 7.395555-19.143111V-42.66666699999996a56.888889 56.888889 0 0 0-56.888889-56.888889H227.555556a56.888889 56.888889 0 0 0-56.888889 56.888889V810.666667a56.888889 56.888889 0 0 0 56.888889 56.888889zM625.777778 865.507556a19.911111 19.911111 0 0 0 5.916444-4.465778l271.132445-298.24a28.444444 28.444444 0 0 0 5.176889-8.135111H682.666667a56.888889 56.888889 0 0 0-56.888889 56.888889V865.507556zM313.799111 375.808h22.528l51.655111-79.189333 51.655111 79.189333h22.528l-64.853333-96.483556V213.33333300000004h-18.659556v65.991111l-64.853333 96.483556z m215.04-41.642667c17.976889 0 30.264889-7.281778 36.864-22.300444 4.551111 7.736889 10.012444 13.425778 16.384 16.839111 5.688889 3.640889 12.515556 5.461333 20.707556 5.461333 12.288 0 22.072889-3.868444 29.809777-11.605333 7.281778-7.964444 11.150222-18.659556 11.150223-32.085333V213.33333300000004h-18.204445v74.183111c0 10.467556-2.275556 18.204444-6.599111 23.210667-4.551111 5.461333-11.832889 7.964444-21.845333 7.964445a24.177778 24.177778 0 0 1-19.342222-8.647112c-5.461333-5.916444-7.964444-13.425778-7.964445-22.983111V213.33333300000004h-18.204444v74.183111c0 20.935111-9.102222 31.175111-27.079111 31.175112a25.116444 25.116444 0 0 1-20.707556-10.012445 35.242667 35.242667 0 0 1-8.192-23.665778V213.33333300000004h-18.204444v117.646223h18.204444v-15.701334c8.874667 12.743111 20.024889 18.887111 33.223111 18.887111z m146.773333 44.828445h17.976889V213.33333300000004h-17.976889v165.660445z"  horiz-adv-x="1024" />

    
    <glyph glyph-name="file1" unicode="&#58909;" d="M623.587556 662.940444c0 61.368889-66.958222 111.587556-156.202667 111.587556H143.786667c-44.629333 0-78.108444-22.328889-78.108445-55.793778v-55.779555M902.528-6.528H121.486222c-33.479111 0-55.793778 22.328889-55.793778 55.793778V662.940444h836.835556c33.479111 0 55.779556-22.314667 55.779556-55.779555v-557.895111c0-33.464889-22.300444-55.793778-55.779556-55.793778z"  horiz-adv-x="1024" />

    
    <glyph glyph-name="rar" unicode="&#58900;" d="M944-48H80c-26.4 0-48 18.4-48 40.8V240h960v-247.2c0-22.4-21.6-40.8-48-40.8zM80 816h864c26.4 0 48-18.4 48-40.8V528H32V775.2C32 797.6 53.6 816 80 816zM32 528h960v-288H32zM352 816h320v-864H352zM444 768h64v-48h-64z m64 48h64v-48h-64z m0-96h64v-48h-64z m-64-48h64v-48h-64z m64-48h64v-48h-64z m-64-48h64v-48h-64z m64-48h64v-48h-64z m-64-48h64v-48h-64z m64-48h64v-48h-64z m-64-48h64v-48h-64z m64-48h64v-48h-64z m-64-48h64v-48h-64z m64-48h64v-48h-64z m-64-48h64v-48h-64z m64-48h64v-48h-64z m-64-48h64v-48h-64z m0-96h64v-48h-64z m64 48h64v-48h-64z"  horiz-adv-x="1024" />

    
    <glyph glyph-name="zip" unicode="&#59546;" d="M647.1 256.5h-79.4l-54.9 97.7-56.4-97.7H377l86.6 130.3-79.4 125.4h75.2l53.4-97.7 53.4 97.7h75.2l-80.9-127.1 86.6-128.6zM63.8 522.5h896.4v-279.4H63.8V522.5zM958.1 522.5V745.2c0 28.3-25.6 52.6-55.5 52.6H121.4c-29.9 0-55.5-24.3-55.5-52.6v-222.7h892.2zM63.8 243.1v-222.7c0-28.3 25.6-52.6 55.5-52.6h785.5c29.9 0 55.5 24.3 55.5 52.6V243.1H63.8zM411.7 797.8h200.6v-830.1H411.7V797.8zM616.6 440.7v-117.4H407.4V440.7h209.2m34.1 48.6H373.3c-4.3 0-12.8-4-12.8-12.1v-186.3c0-4 4.3-12.1 12.8-12.1h277.5c4.3 0 12.8 4 12.8 12.1V477.1c-4.3 8.1-8.6 12.2-12.9 12.2z"  horiz-adv-x="1024" />

    
    <glyph glyph-name="BMPs" unicode="&#58996;" d="M817.65264 896H441.193573c-29.674063 0-53.765876-24.48355-53.765876-54.745218v-766.530987c0-30.261668 24.091813-54.745218 53.765876-54.745218h537.658761c29.674063 0 53.765876 24.48355 53.765876 54.745218v602.295333l-214.96557 218.980872zM995.011477 55.039021H425.132364V854.377965h371.758225v-214.377965H995.011477zM995.011477 58.270849H425.132364V857.609793h371.758225v-214.28003H995.011477zM530.509564 365.490436c17.432288 0 30.947207-4.113236 40.740627-12.437643 9.009946-7.834736 13.710788-18.313695 13.710788-31.534813 0-9.79342-2.448355-18.117827-7.149196-24.875287-4.602907-6.365723-11.262433-10.96863-20.076511-14.396327 11.556236-2.154552 20.076511-6.75746 25.952563-13.906657 5.680184-6.75746 8.520275-16.355011 8.520275-28.107115 0-17.628156-6.07192-30.555471-18.117827-38.781944-10.283091-6.75746-24.875287-10.283091-43.482785-10.283091H450.497322V365.490436h80.012242z m-51.219587-73.254782h43.776588c12.241775 0 20.76205 2.154552 25.952563 6.071921 4.798776 4.113236 7.638868 10.674828 7.638867 19.782708 0 8.324407-2.644223 14.396327-7.638867 18.117827-5.386381 3.917368-13.710788 5.876052-25.462892 5.876052h-44.168325v-49.848508z m0-77.661821h47.400153c10.674828 0 19.390972 1.762816 25.462892 5.190513 7.834736 4.407039 11.752104 11.262433 11.752104 20.957919 0 9.989288-2.840092 17.040551-8.520275 21.545524-5.876052 4.407039-15.179801 6.561591-27.911247 6.561591h-48.281561v-54.255547zM652.633512 365.490436L711.981637 228.676358h0.881408l59.054323 136.814078h33.493497v-174.420811h-28.596787V311.234889h-0.881408L724.713083 191.069625h-24.679418l-51.219587 120.165264h-0.881408v-120.165264h-28.596786V365.490436h33.297628zM912.061209 365.490436c42.013772 0 63.167559-17.824024 63.167559-53.570008 0-35.941852-21.251721-53.961744-63.755164-53.961744h-43.188983v-66.889059h-28.596786V365.490436h72.373374z m-43.776588-83.048202h41.524101c12.633512 0 22.035195 2.448355 27.911247 6.75746 5.876052 4.602907 8.716144 12.241775 8.716144 22.720734s-3.231829 17.824024-9.009946 22.231064c-5.876052 4.602907-15.179801 6.75746-27.617445 6.75746h-41.524101v-58.466718z"  horiz-adv-x="1054" />

    
    <glyph glyph-name="file" unicode="&#59234;" d="M585.152 603.424V873.152q12.576-8 20.576-16L838.88 624q8-8 16-20.576h-269.728zM512 585.152q0-22.848 16-38.848t38.848-16h310.848v-603.424q0-22.848-16-38.848t-38.848-16h-768q-22.848 0-38.848 16T0-73.12V841.152Q0 864 16 880T54.848 896H512v-310.848z"  horiz-adv-x="1024" />

    
    <glyph glyph-name="css" unicode="&#59821;" d="M676.297143 896H145.609143C130.834286 896 118.857143 884.022857 118.857143 860.781714V-109.714286c0-6.308571 11.977143-18.285714 26.752-18.285714h732.781714c14.774857 0 26.752 11.977143 26.752 18.285714V658.688c0 12.726857-1.700571 16.822857-4.699428 19.84L687.670857 891.300571A16.164571 16.164571 0 0 1 676.297143 896zM685.714286 893.238857V676.571429h216.667428zM878.390857-128H145.609143A26.752 26.752 0 0 0 118.857143-101.248V182.857143h786.285714v-284.105143c0-14.774857-11.977143-26.752-26.752-26.752zM431.177143-54.4c-6.838857-6.656-14.592-11.666286-23.241143-14.994286s-17.993143-4.992-27.995429-4.992c-11.008 0-21.12 1.993143-30.372571 5.997715s-17.334857 9.910857-24.246857 17.755428-12.342857 17.664-16.256 29.494857c-3.913143 11.830857-5.869714 25.508571-5.869714 40.996572s1.956571 29.129143 5.869714 40.868571c3.913143 11.757714 9.344 21.540571 16.256 29.366857s15.030857 13.787429 24.374857 17.883429 19.419429 6.125714 30.244571 6.125714c10.002286 0 19.346286-1.664 27.995429-4.992s16.402286-8.338286 23.241143-14.994286l-20.754286-18.505142c-4.169143 4.845714-8.777143 8.338286-13.878857 10.496s-10.368 3.254857-15.872 3.254857c-6.162286 0-12.032-1.152-17.627429-3.492572s-10.587429-6.290286-14.994285-11.867428-7.881143-12.781714-10.368-21.632-3.84-19.657143-4.004572-32.493715c0.164571-12.507429 1.462857-23.168 3.876572-32s5.741714-16.036571 10.002285-21.632 9.088-9.654857 14.500572-12.251428 11.117714-3.876571 17.133714-3.876572 11.629714 1.097143 16.877714 3.254858 10.038857 5.668571 14.372572 10.496l20.736-18.267429zM578.432-22.637714c0-6.656-1.371429-13.129143-4.132571-19.382857s-6.619429-11.757714-11.629715-16.493715-11.154286-8.539429-18.505143-11.373714-15.652571-4.242286-24.996571-4.242286c-4.004571 0-8.118857 0.219429-12.379429 0.621715s-8.539429 1.133714-12.873142 2.121142-8.466286 2.377143-12.379429 4.132572-7.277714 3.876571-10.130286 6.381714l5.248 21.504c2.340571-1.334857 5.284571-2.633143 8.868572-3.876571s7.277714-2.413714 11.117714-3.492572 7.661714-1.956571 11.501714-2.633143 7.405714-1.005714 10.752-1.005714c10.166857 0 17.956571 2.377143 23.369143 7.131429s8.118857 11.794286 8.118857 21.12c0 5.668571-1.901714 10.496-5.741714 14.500571s-8.630857 7.625143-14.372571 10.88-11.958857 6.491429-18.633143 9.746286-12.909714 7.094857-18.742857 11.501714-10.660571 9.618286-14.500572 15.616-5.741714 13.494857-5.741714 22.491429c0 8.155429 1.499429 15.414857 4.498286 21.741714s7.04 11.721143 12.123428 16.128 11.008 7.789714 17.755429 10.130286 13.878857 3.492571 21.376 3.492571c7.661714 0 15.414857-0.713143 23.241143-2.121143s14.153143-3.712 18.998857-6.875428c-1.005714-2.157714-2.157714-4.534857-3.492572-7.131429l-3.748571-7.241143c-1.152-2.249143-2.157714-4.132571-2.998857-5.632s-1.334857-2.340571-1.499429-2.505143c-1.005714 0.493714-2.121143 1.152-3.382857 1.993143s-3.035429 1.664-5.376 2.505143-5.412571 1.408-9.252571 1.755429-8.758857 0.256-14.756572-0.256c-3.346286-0.347429-6.491429-1.28-9.508571-2.870857s-5.668571-3.529143-8.009143-5.869715-4.169143-4.955429-5.504-7.881143-1.993143-5.723429-1.993143-8.374857c0-6.656 1.901714-12.032 5.741714-16.128s8.594286-7.661714 14.244572-10.752 11.830857-6.089143 18.505143-8.996571 12.873143-6.473143 18.633142-10.624 10.532571-9.380571 14.372572-15.616 5.814857-14.281143 5.814857-24.118857zM713.929143-22.637714c0-6.656-1.371429-13.129143-4.132572-19.382857s-6.619429-11.757714-11.629714-16.493715-11.154286-8.539429-18.505143-11.373714-15.652571-4.242286-24.996571-4.242286c-4.004571 0-8.118857 0.219429-12.379429 0.621715s-8.539429 1.133714-12.873143 2.121142-8.466286 2.377143-12.379428 4.132572-7.277714 3.876571-10.130286 6.381714l5.248 21.504c2.340571-1.334857 5.284571-2.633143 8.868572-3.876571s7.277714-2.413714 11.117714-3.492572 7.661714-1.956571 11.501714-2.633143 7.405714-1.005714 10.752-1.005714c10.166857 0 17.956571 2.377143 23.369143 7.131429s8.118857 11.794286 8.118857 21.12c0 5.668571-1.901714 10.496-5.741714 14.500571s-8.630857 7.625143-14.372572 10.88-11.958857 6.491429-18.633142 9.746286-12.909714 7.094857-18.742858 11.501714-10.660571 9.618286-14.500571 15.616-5.741714 13.494857-5.741714 22.491429c0 8.155429 1.499429 15.414857 4.498285 21.741714s7.04 11.721143 12.123429 16.128 11.008 7.789714 17.755429 10.130286 13.878857 3.492571 21.376 3.492571c7.661714 0 15.414857-0.713143 23.241142-2.121143s14.153143-3.712 18.998858-6.875428c-1.005714-2.157714-2.157714-4.534857-3.492572-7.131429l-3.748571-7.241143c-1.152-2.249143-2.157714-4.132571-2.998857-5.632s-1.334857-2.340571-1.499429-2.505143c-1.005714 0.493714-2.121143 1.152-3.382857 1.993143s-3.035429 1.664-5.376 2.505143-5.412571 1.408-9.252572 1.755429-8.758857 0.256-14.756571-0.256c-3.346286-0.347429-6.491429-1.28-9.508571-2.870857s-5.668571-3.529143-8.009143-5.869715-4.169143-4.955429-5.504-7.881143-1.993143-5.723429-1.993143-8.374857c0-6.656 1.901714-12.032 5.741714-16.128s8.594286-7.661714 14.244572-10.752 11.830857-6.089143 18.505142-8.996571 12.873143-6.473143 18.633143-10.624 10.532571-9.380571 14.372572-15.616 5.814857-14.281143 5.814857-24.118857zM356.571429 548.571429v73.142857c0 10.075429 8.192 18.285714 18.285714 18.285714a18.285714 18.285714 0 1 1 0 36.571429c-30.244571 0-54.857143-24.612571-54.857143-54.857143v-73.142857c0-20.169143-16.402286-36.571429-36.571429-36.571429a18.285714 18.285714 0 1 1 0-36.571429c20.169143 0 36.571429-16.402286 36.571429-36.571428v-73.142857c0-30.244571 24.612571-54.857143 54.857143-54.857143a18.285714 18.285714 0 1 1 0 36.571428c-10.093714 0-18.285714 8.210286-18.285714 18.285715v73.142857c0 21.942857-9.910857 41.435429-25.270858 54.857143a72.685714 72.685714 0 0 1 25.270858 54.857143zM722.285714 512c-20.169143 0-36.571429 16.402286-36.571428 36.571429v73.142857c0 30.244571-24.612571 54.857143-54.857143 54.857143a18.285714 18.285714 0 1 1 0-36.571429c10.093714 0 18.285714-8.210286 18.285714-18.285714v-73.142857c0-21.942857 9.910857-41.435429 25.270857-54.857143a72.685714 72.685714 0 0 1-25.270857-54.857143v-73.142857c0-10.075429-8.192-18.285714-18.285714-18.285715a18.285714 18.285714 0 1 1 0-36.571428c30.244571 0 54.857143 24.612571 54.857143 54.857143v73.142857c0 20.169143 16.402286 36.571429 36.571428 36.571428a18.285714 18.285714 0 1 1 0 36.571429z"  horiz-adv-x="1024" />

    
    <glyph glyph-name="png" unicode="&#58895;" d="M855.005 714.468L729.838 844.517C702.559 872.785 648.78 896 610.197 896H189.576c-38.587 0-70.073-32.771-70.073-72.778l-0.078-773.263h56.084l0.064 420.95V823.216c0 7.926 6.511 14.545 14.064 14.545H610.25c4.137 0 8.949-0.553 14.002-1.562v-231.375h222.855c0.994-5.262 1.522-34.005 1.522-38.44v-621.608c0-7.922-6.516-14.531-14.069-14.531H189.576c-7.633 0-14.066 6.74-14.066 14.525V49.959h-56.084V-55.23c0-40.072 31.494-72.77 70.081-72.77h644.986c38.603 0 70.082 32.697 70.082 72.77V566.312c0.068 40.084-22.276 119.879-49.57 148.156zM681.454 656.87V802.37a66.013 66.013 0 0 0 9.835-8.283l125.77-127.132a77.2 77.2 0 0 0 8.255-10.085h-143.86zM196.89 249.273l117.913 187.923 117.913-70.01 228.457 191.609 162.131-309.522zM390.147 603.012m-84.75 0a84.75 84.75 0 1 1 169.5 0 84.75 84.75 0 1 1-169.5 0ZM218.806-13.077V191.981h66.441c25.178 0 41.589-1.028 49.236-3.078 11.75-3.077 21.587-9.769 29.514-20.072 7.925-10.305 11.89-23.616 11.89-39.934 0-12.59-2.286-23.174-6.854-31.753-4.57-8.58-10.375-15.315-17.415-20.211-7.042-4.896-14.198-8.137-21.471-9.722-9.885-1.958-24.199-2.938-42.942-2.938h-26.996v-77.352h-41.403z m41.403 170.368v-58.188h22.66c16.317 0 27.228 1.071 32.731 3.217 5.501 2.145 9.813 5.502 12.938 10.071 3.123 4.568 4.686 9.884 4.686 15.945 0 7.46-2.192 13.614-6.574 18.464-4.384 4.848-9.931 7.879-16.645 9.093-4.944 0.931-14.875 1.397-29.794 1.397h-20.002zM410.296-13.077V191.981h40.284l83.926-136.939V191.981h38.465v-205.059h-41.543l-82.666 133.722v-133.722h-38.466zM712.146 62.316v34.55h89.242v-81.688c-8.672-8.393-21.24-15.784-37.697-22.171-16.459-6.386-33.129-9.581-50.004-9.581-21.449 0-40.145 4.498-56.092 13.499-15.945 8.997-27.928 21.866-35.947 38.605-8.021 16.737-12.029 34.944-12.029 54.621 0 21.353 4.477 40.33 13.428 56.93 8.951 16.597 22.053 29.326 39.305 38.187 13.148 6.805 29.514 10.21 49.098 10.21 25.457 0 45.342-5.339 59.656-16.016 14.313-10.679 23.521-25.436 27.625-44.271l-41.123-7.693c-2.893 10.071-8.322 18.021-16.295 23.85-7.973 5.826-17.93 8.742-29.863 8.742-18.094 0-32.477-5.735-43.152-17.205-10.68-11.47-16.016-28.489-16.016-51.055 0-24.338 5.406-42.593 16.225-54.761 10.816-12.17 24.99-18.255 42.521-18.255 8.674 0 17.367 1.7 26.088 5.106 8.719 3.401 16.201 7.528 22.451 12.379v26.017h-47.421z"  horiz-adv-x="1024" />

    
    <glyph glyph-name="GIF" unicode="&#58990;" d="M40.770707 200.167792h76.809101v-77.355136L40.770707 200.167792zM928.625667-128H153.982225a54.603626 54.603626 0 0 0-54.603626 54.603626V841.396374a54.603626 54.603626 0 0 0 54.603626 54.603626h585.168859a54.603626 54.603626 0 0 0 38.586563-16.017064L967.212229 690.508354a54.603626 54.603626 0 0 0 16.017064-38.586562v-725.318166a54.603626 54.603626 0 0 0-54.603626-54.603626zM153.982225 859.597583a18.201209 18.201209 0 0 1-18.201208-18.201209v-914.792748a18.201209 18.201209 0 0 1 18.201208-18.201209h774.643442a18.201209 18.201209 0 0 1 18.201208 18.201209V651.921792a18.201209 18.201209 0 0 1-5.27835 12.922858L752.073942 854.319232a18.201209 18.201209 0 0 1-12.922858 5.278351zM823.42268 568.378244H77.173125a36.402417 36.402417 0 0 1-36.402418-36.402417v-331.261998h782.651973a36.402417 36.402417 0 0 1 36.402418 36.402417V531.975827a36.402417 36.402417 0 0 1-36.402418 36.402417zM307.964451 303.914682c43.682901 0 52.783505 29.849982 52.783505 55.513686v2.002133h-52.965517v34.400285h93.3722v-121.948098h-30.57803a123.768219 123.768219 0 0 0-3.276218 24.571631 74.806968 74.806968 0 0 0-65.706363-28.029861c-63.886242 0-99.014575 48.415215-99.014575 111.027373 0 66.2524 37.858514 115.941699 106.295058 115.941699 54.603626 0 87.729826-30.396018 93.372201-68.618557h-41.316744a49.143263 49.143263 0 0 1-52.783505 36.402418c-47.14113 0-62.612158-38.950587-62.612158-81.177391s16.745112-80.085318 62.430146-80.085318z m184.92428-30.031994h-41.316744V494.299325h41.316744zM697.834341 459.170992h-109.207252v-60.063989h102.290792v-34.218272H588.627089v-91.916104h-40.406684V494.299325h149.613936zM754.258087 877.798791v-178.371845a33.308212 33.308212 0 0 1 32.762176-33.308212h177.279773z"  horiz-adv-x="1024" />

    
    <glyph glyph-name="jpg" unicode="&#59082;" d="M839.68 428.4416v204.8a19.1488 19.1488 0 0 1-6.656 14.848c-1.024 1.024-3.584 3.072-6.656 6.144-5.12 5.12-11.264 10.24-17.408 16.384-18.432 16.896-36.352 33.792-53.76 49.664a25.6 25.6 0 0 1-4.096 3.584c-23.04 20.992-42.496 37.888-56.832 50.176a238.2336 238.2336 0 0 1-19.968 15.872 51.9168 51.9168 0 0 1-8.192 5.12 22.2208 22.2208 0 0 1-10.752 2.56 4.608 4.608 0 0 1-2.56-0.512H184.32v-368.64H102.4v-348.16h81.92a102.4 102.4 0 0 1 102.4-102.4h552.96v102.4h81.92v348.16z m-116.224 264.704a25.6 25.6 0 0 1 4.096-3.584c17.408-15.872 35.84-32.256 53.76-49.152a102.4 102.4 0 0 1 8.192-7.168H675.84v102.4c12.8-11.264 29.184-25.6 47.616-42.496zM225.28 756.1216h409.6v-119.808a44.032 44.032 0 0 1 44.032-44.032H798.72v-163.84H225.28z m573.44-737.28H286.72a61.44 61.44 0 0 0-61.44 61.44h573.44zM386.2528 207.2064q0-34.0992-13.9776-50.6368t-40.3456-16.4352q-39.8336 0-48.896 23.1424a144.3328 144.3328 0 0 0-9.3184 51.2v11.008l34.1504 0.3072a155.4432 155.4432 0 0 1 3.3792-37.888q3.4816-12.288 17.9712-12.288c9.5232 0 15.36 3.1232 17.408 9.472a70.5024 70.5024 0 0 1 3.1232 21.7088V358.4h36.5056zM458.7008 145.4592h-36.5056V358.4h79.872a48.5376 48.5376 0 0 0 39.936-18.688q14.4384-18.432 14.3872-49.8688a92.16 92.16 0 0 0-1.1776-13.4656 82.2784 82.2784 0 0 0-4.1472-16.4352 70.656 70.656 0 0 0-16.7936-26.0096 45.4144 45.4144 0 0 0-33.6896-11.8272h-41.8816z m33.8432 113.7152a23.9616 23.9616 0 0 1 18.432 5.5296 28.0576 28.0576 0 0 1 7.424 12.9024 35.1232 35.1232 0 0 1 1.3312 8.0384v6.5024c0 10.24-2.5088 18.0224-7.5776 22.5792s-13.2096 6.8096-24.4736 6.8096h-28.9792v-62.3616zM666.88 260.4032h73.0624v-114.944h-24.3712l-3.84 26.7264-3.584-5.12a47.4112 47.4112 0 0 0-4.1472-5.376 70.7584 70.7584 0 0 0-17.664-15.0016 54.8352 54.8352 0 0 0-28.9792-6.656q-31.488 0-55.9616 27.5968t-24.4736 83.7632a150.3744 150.3744 0 0 0 20.48 78.3872q20.48 34.7136 64.8704 34.4576 30.72 0 47.9744-15.36a83.968 83.968 0 0 0 23.9104-33.9968 98.7136 98.7136 0 0 0 3.2256-11.5712 69.5808 69.5808 0 0 0 1.4848-10.7008l-36.5056 0.3072a22.1184 22.1184 0 0 1-1.6384 6.8096 48.3328 48.3328 0 0 1-4.608 9.216 52.7872 52.7872 0 0 1-12.5952 12.9536 32.2048 32.2048 0 0 1-19.456 5.7856 44.9024 44.9024 0 0 1-34.6112-17.8176q-15.36-17.8176-15.36-58.8288 0-42.1888 15.36-57.2928a49.8176 49.8176 0 0 1 33.28-16.0256h2.3552a47.0016 47.0016 0 0 1 8.9088 1.1776A29.3376 29.3376 0 0 1 686.08 184.32a51.2 51.2 0 0 1 12.4928 14.1824 72.7552 72.7552 0 0 1 8.8576 25.856h-40.6528z"  horiz-adv-x="1024" />

    
    <glyph glyph-name="SQL" unicode="&#58890;" d="M912 454.4H864V643.2L678.4 832H252.8c-51.2 0-96-44.8-96-96v-281.6H112c-25.6 0-48-22.4-48-48v-281.6c0-25.6 22.4-48 48-48H160V32c0-51.2 41.6-92.8 92.8-92.8h518.4c51.2 0 92.8 41.6 92.8 92.8v48h48c25.6 0 48 22.4 48 48v281.6c0 22.4-22.4 44.8-48 44.8zM204.8 736c0 25.6 22.4 48 48 48h377.6v-92.8c0-51.2 41.6-92.8 92.8-92.8h92.8v-140.8H204.8V736z m396.8-588.8c9.6 0 19.2 0 25.6 3.2l9.6-35.2c-9.6-3.2-22.4-6.4-41.6-6.4-48 0-83.2 25.6-99.2 64-51.2 9.6-86.4 54.4-86.4 124.8 0 80 44.8 124.8 108.8 124.8s108.8-44.8 108.8-124.8c0-67.2-32-108.8-80-121.6 12.8-22.4 35.2-28.8 54.4-28.8zM233.6 236.8c16-16 41.6-25.6 60.8-25.6 25.6 0 38.4 9.6 38.4 28.8 0 19.2-16 22.4-35.2 32l-32 12.8c-25.6 9.6-48 28.8-48 64 0 38.4 35.2 70.4 83.2 70.4 28.8 0 57.6-9.6 76.8-32l-25.6-28.8c-16 12.8-32 19.2-51.2 19.2-22.4 0-35.2-9.6-35.2-25.6s16-22.4 38.4-32l32-12.8c28.8-12.8 48-32 48-64 0-38.4-32-73.6-89.6-73.6-32 0-64 12.8-89.6 35.2l28.8 32zM819.2 32c0-25.6-22.4-48-48-48H252.8c-25.6 0-48 22.4-48 48v48h614.4V32z m3.2 140.8h-147.2v240h48v-201.6h99.2v-38.4zM518.4 377.6c-35.2 0-57.6-32-57.6-83.2 0-54.4 22.4-86.4 57.6-86.4s57.6 32 57.6 86.4c3.2 51.2-19.2 83.2-57.6 83.2z"  horiz-adv-x="1024" />

    
    <glyph glyph-name="json" unicode="&#58881;" d="M512 316.41600000000005a99.328 99.328 0 0 1-18.944-62.464 102.4 102.4 0 0 1 18.944-61.952 59.392 59.392 0 0 1 51.2-24.064 60.928 60.928 0 0 1 51.2 23.04 97.28 97.28 0 0 1 17.92 61.952 104.96 104.96 0 0 1-17.92 64 58.368 58.368 0 0 1-51.2 23.552 60.928 60.928 0 0 1-51.2-24.064zM970.24 464.896H916.48V680.448L700.416 896H215.552a107.52 107.52 0 0 1-107.52-108.032v-323.072H53.76A53.76 53.76 0 0 1 0 411.136v-323.584a53.76 53.76 0 0 1 53.76-53.76h54.272v-53.76A108.032 108.032 0 0 1 215.552-128h592.896a108.032 108.032 0 0 1 107.52 108.032v53.76h53.76A53.76 53.76 0 0 1 1024 87.55200000000002V411.136a53.76 53.76 0 0 1-53.76 53.76zM161.792 793.6A53.76 53.76 0 0 0 215.552 849.408h431.104V742.4a108.032 108.032 0 0 1 108.032-108.032h108.032v-162.304H161.792z m527.872-537.088a138.24 138.24 0 0 0-35.328-98.304 120.32 120.32 0 0 0-92.16-37.888 119.296 119.296 0 0 0-90.624 36.352 131.072 131.072 0 0 0-34.816 94.208 139.776 139.776 0 0 0 35.84 99.328 122.368 122.368 0 0 0 94.208 38.4 115.712 115.712 0 0 0 89.6-36.864 135.68 135.68 0 0 0 33.28-95.232z m-347.648-44.544a168.448 168.448 0 0 1-47.616 25.6q-60.928 25.6-60.928 75.264a65.536 65.536 0 0 0 27.648 56.32 121.344 121.344 0 0 0 72.704 19.968 179.2 179.2 0 0 0 64-9.728v-51.2a105.984 105.984 0 0 1-60.928 17.92 62.464 62.464 0 0 1-32.768-7.68 22.528 22.528 0 0 1-12.288-19.968 25.6 25.6 0 0 1 8.192-18.432 156.672 156.672 0 0 1 41.472-23.04 135.168 135.168 0 0 0 51.2-34.816 69.12 69.12 0 0 0 14.336-44.032 66.56 66.56 0 0 0-26.624-56.832 124.928 124.928 0 0 0-73.216-20.992 161.28 161.28 0 0 0-73.216 14.336v55.296A108.544 108.544 0 0 1 307.2 163.84000000000003a60.416 60.416 0 0 1 33.792 7.68 23.552 23.552 0 0 1 11.264 19.968 28.16 28.16 0 0 1-10.24 20.48zM97.28 120.32000000000005a97.28 97.28 0 0 0-36.352 7.68v51.2a51.2 51.2 0 0 1 32.768-10.752q39.936 0 39.936 60.416V384h55.296v-157.696a117.248 117.248 0 0 0-23.552-78.848 84.992 84.992 0 0 0-68.096-27.136z m764.928-133.12a53.76 53.76 0 0 0-53.76-53.76H215.552a53.76 53.76 0 0 0-53.76 53.76V40.960000000000036h700.416z m102.4 137.728h-57.344l-110.08 167.936a192.512 192.512 0 0 0-12.288 20.992 409.6 409.6 0 0 0 0-41.472v-147.456h-51.2V384h59.904l105.984-163.328 12.8-20.48a240.128 240.128 0 0 0 0 35.84V384h51.2z"  horiz-adv-x="1024" />

    
    <glyph glyph-name="PHP" unicode="&#58880;" d="M592.015 806.5h21.273l206.727-242-5-14.448h-178l-30.879 14.448-26.121 41zM825.967 553.917c-2.251 6.11-3.876 11.552-7.867 16.233l-187.613 220.946c-4.879 5.722-10.623 10.068-17.9 13.426-7.277 3.358-14.509 4.478-22.029 4.478h-357.808c-13.705 0-30.509-4.779-40.966-15.236-10.457-10.456-18.784-23.713-18.784-37.418v-728.317c0-13.705 8.327-27.649 18.784-38.106s27.261-15.923 40.966-15.923h546.237c13.705 0 24.14 5.467 34.597 15.924s12.415 24.4 12.415 38.106v507.37c0.001 6.151 2.219 12.407-0.032 18.517zM809.973 562.255c-0.103 0.278-0.266 0.745-0.373 0.745h-155.877c-12.514 0-26.941 2.004-36.488 11.551-9.548 9.548-16.235 19.291-16.235 31.805v185.909c0-0.556 6.601-0.983 8.219-1.73 6.644-3.067 13.917-7.229 18.372-12.454l172.878-201.588c3.463-4.060 7.091-2.494 9.131-13.494h0.637c-0.112 0.001-0.145-1.067-0.264-0.744zM910.282 322.632c-10.456 10.457-21.194 15.368-34.899 15.368h-38.383v197.399c0 1.402 3.251 2.808 3.361 4.22 0.403 5.172 2.898 12.253-0.136 20.48-2.38 6.459-4.478 13.775-10.178 20.454l-187.485 220.967c-6.6 7.745-14.057 11.176-20.766 14.199l-2.478 1.161c-7.494 3.462-14.559 3.907-19.909 3.907-1.621 0-3.224-0.352-4.861-0.399-1.329-0.042-2.644-0.388-3.988-0.388h-357.81c-22.681 0-43.538-5.652-55.299-17.409-10.736-10.747-26.451-25.441-26.451-46.245v-728.317c0-17.514 12.441-37.912 26.456-51.938 14.021-14.011 37.78-23.091 55.294-23.091h546.237c20.804 0 32.677 12.354 43.429 23.096 11.753 11.757 14.584 29.247 14.584 51.933v74.971h38.383c13.705 0 24.443 5.23 34.899 15.687 10.457 10.457 12.718 24.163 12.718 37.869v128.526c0 13.705-2.261 27.094-12.718 37.55zM601 786.936l4.418-0.503c5.376-2.427 9.867-3.866 11.702-6.015l185.795-217.418h-155.513c-9.387 0-23.549 5.069-30.965 12.49-7.369 7.363-15.437 18.524-15.437 28.006v183.44zM805 28.029c0-9.523 1.621-22.414-5.24-29.276-9.576-9.575-13.644-13.753-20.772-13.753h-546.238c-8.849 0-24.355 5.967-32.137 13.748-7.786 7.788-16.613 20.433-16.613 29.281v728.317c0 7.128 7.038 14.018 16.609 23.588 6.867 6.867 22.618 8.066 32.142 8.066h336.249v-184.504c0-18.111 11.297-37.187 24.78-50.664 13.534-13.535 35.611-21.832 53.622-21.832h157.598v-193h-368.749c-13.706 0-30.76-4.911-41.217-15.368-10.457-10.456-19.034-23.845-19.034-37.55v-128.526c0-13.705 8.577-27.412 19.034-37.869s27.511-15.687 41.217-15.687h368.749v-74.971zM429.639 199.010v-62.489h-38.098v178.912h89.333c16.265 0 27.898-1.157 34.863-3.488 11.805-3.927 21.105-12.060 27.904-24.4 5.004-9.306 7.513-19.404 7.513-30.325 0-9.116-1.655-17.739-4.97-25.871-3.306-8.153-7.915-14.811-13.811-20.001-5.364-4.644-11.043-7.869-17.028-9.641-5.993-1.806-14.181-2.699-24.549-2.699h-61.155zM429.639 230.944h51.769c9.292 0 15.827 1.418 19.578 4.276 5.537 4.47 8.317 12.253 8.317 23.348 0 11.973-4.205 19.667-12.613 23.069-3.042 1.245-7.869 1.877-14.478 1.877h-52.577l0.001-52.567zM720.416 315.432v-178.912h-37.826v74.039h-69.2v-74.039h-38.098v178.912h38.098v-72.953h69.201v72.953h37.825zM794.989 199.010v-62.489h-38.098v178.912h89.333c16.265 0 27.898-1.157 34.863-3.488 11.805-3.927 21.105-12.060 27.905-24.4 5.004-9.306 7.513-19.404 7.513-30.325 0-9.116-1.655-17.739-4.97-25.871-3.306-8.153-7.915-14.811-13.811-20.001-5.364-4.644-11.044-7.869-17.028-9.641-5.993-1.806-14.181-2.699-24.549-2.699h-61.159zM794.989 230.944h51.769c9.292 0 15.827 1.418 19.578 4.276 5.537 4.47 8.317 12.253 8.317 23.348 0 11.973-4.205 19.667-12.613 23.069-3.042 1.245-7.869 1.877-14.478 1.877h-52.577l0.001-52.567zM332.86 545.393h21.421v21.547h74.974v-21.673h-96.395v0.126zM311.439 545.267h-21.274v21.673h42.695v-21.547h-21.421v-0.126zM493.591 545.267h-42.915v21.673h42.915v-21.673zM354.281 577.399v0.125h-21.421v-0.125h-42.695v22.007h96.248v-21.882h21.421v21.882h53.553v-21.882M472.097 674.38h21.494v-22.007h-21.494v22.007zM472.097 684.63h-21.421v-0.125h-10.711v21.673h53.626v-21.673h-21.494v0.125zM450.676 652.373h-53.553v22.007h53.553v-22.007zM397.123 684.63h-21.421v-0.125h-32.132v21.673h74.974v-21.673h-21.421v0.125zM290.164 706.177h31.985v-21.673h-31.985v21.673zM375.702 652.373h-10.711v0.125h-21.421v-0.125h-53.406v22.007h85.538v-22.007zM343.57 620.366h21.421v21.547h21.494v-10.837h-0.073v-10.836h-96.248v21.673h53.406v-21.547zM311.439 513.136h-21.274v22.007h21.274v-22.007zM386.485 513.136h-53.625v22.007h53.626v-22.007h-0.001z"  horiz-adv-x="1024" />

    
    <glyph glyph-name="HTML1" unicode="&#58898;" d="M847.872 655.872v-688c0-26.56-21.408-48-48-48h-576c-26.56 0-48 21.44-48 48v832c0 26.592 21.44 48 48 48h432zM160 127.872v-160c0-35.456 28.544-64 64-64h576c35.456 0 64 28.544 64 64v160H160zM847.872 655.872h-144c-26.56 0-48 21.44-48 48v144M432.736 511.936a16 16 0 0 1-10.976-4.8l-96.96-95.776a16 16 0 0 1-0.416-0.416 16 16 0 0 1 1.664-23.808l95.68-94.56a16 16 0 1 1 22.528 22.72l-85.568 84.576 85.568 84.48a16 16 0 0 1-11.52 27.584z m157.824 0a16 16 0 0 1-11.008-27.552l85.504-84.48-85.504-84.576a16 16 0 1 1 22.496-22.752l95.648 94.56a16 16 0 0 1 5.44 17.504 16 16 0 0 1-1.28 2.912 16 16 0 0 1-0.608 1.12 16 16 0 0 1-0.192 0.256 16 16 0 0 1-0.192 0.256 16 16 0 0 1-0.8 0.992 16 16 0 0 1-0.192 0.256 16 16 0 0 1-0.864 0.96 16 16 0 0 1-0.064 0l-0.64 0.544a16 16 0 0 1-0.48 0.512l-95.776 94.688a16 16 0 0 1-11.488 4.8zM654.88 96.256a16 16 0 0 1-11.84-6.624L608 42.688l-35.136 46.944-0.128-0.064a16 16 0 0 1-13.056 6.368 16 16 0 0 1-15.744-16.192v-127.68a16 16 0 1 1 32 0v80.128l15.936-21.248a16 16 0 0 1 28.864-4.448l19.2 25.6v-80.032a16 16 0 1 1 32 0v126.816a16 16 0 0 1-15.424 17.376 16 16 0 0 1-1.632 0z m-383.136-0.32a16 16 0 0 1-15.744-16.192V-47.936a16 16 0 1 1 32 0v47.808h64v-47.808a16 16 0 1 1 32 0v61.312a16 16 0 0 1 0 5.12v61.248a16 16 0 0 1-16.256 16.192 16 16 0 0 1-15.744-16.192v-47.872H288v47.872a16 16 0 0 1-16.256 16.192z m192 0a16 16 0 0 1-1.6-0.064H432a16 16 0 1 1 0-32h16v-111.808a16 16 0 1 1 32 0v111.808h16a16 16 0 1 1 0 32h-30.304a16 16 0 0 1-1.92 0.064z m255.936 0a16 16 0 0 1-15.744-16.192v-126.496a16 16 0 0 1 0.64-5.824 16 16 0 0 1 0-0.064 16 16 0 0 1 0.096-0.416 16 16 0 0 1 0.448-1.12 16 16 0 0 1 0.864-1.824 16 16 0 0 1 0.64-0.992 16 16 0 0 1 0.192-0.32 16 16 0 0 1 0.736-0.96 16 16 0 0 1 0.832-0.864 16 16 0 0 1 0.352-0.416 16 16 0 0 1 0.832-0.704 16 16 0 0 1 0.448-0.384 16 16 0 0 1 0.352-0.32 16 16 0 0 1 1.12-0.736 16 16 0 0 1 2.464-1.248 16 16 0 0 1 0.864-0.32 16 16 0 0 1 5.376-0.864h63.552a16 16 0 1 1 0 32h-47.808v111.872a16 16 0 0 1-16.256 16.192z"  horiz-adv-x="1024" />

    


  </font>
</defs>
</svg>
